{"asset":{"version":"2.0","generator":"THREE.GLTFExporter"},"scenes":[{"name":"AuxScene","nodes":[3]}],"scene":0,"nodes":[{"name":"Cube007","mesh":0},{"name":"Cube007_1","mesh":1},{"matrix":[1.4339205026626587,0,0,0,0,1.4339205026626587,0,0,0,0,1.4339205026626587,0,-4.262714862823486,31.74017906188965,-0.1719510704278946,1],"name":"Desk","extras":{"name":"Desk"},"children":[0,1]},{"name":"Scene","children":[2]}],"bufferViews":[{"buffer":0,"byteOffset":0,"byteLength":3000,"target":34962,"byteStride":12},{"buffer":0,"byteOffset":3000,"byteLength":3000,"target":34962,"byteStride":12},{"buffer":0,"byteOffset":6000,"byteLength":2000,"target":34962,"byteStride":8},{"buffer":0,"byteOffset":8000,"byteLength":1704,"target":34963},{"buffer":0,"byteOffset":9704,"byteLength":432,"target":34962,"byteStride":12},{"buffer":0,"byteOffset":10136,"byteLength":432,"target":34962,"byteStride":12},{"buffer":0,"byteOffset":10568,"byteLength":288,"target":34962,"byteStride":8},{"buffer":0,"byteOffset":10856,"byteLength":216,"target":34963}],"buffers":[{"byteLength":11072,"uri":"data:application/octet-stream;base64,"}],"accessors":[{"bufferView":0,"componentType":5126,"count":250,"max":[0.4412505328655243,0.08180123567581177,0.8335021734237671],"min":[-0.41814759373664856,-0.6012604832649231,-0.8335021734237671],"type":"VEC3"},{"bufferView":1,"componentType":5126,"count":250,"max":[1,1,1],"min":[-1,-1,-1],"type":"VEC3"},{"bufferView":2,"componentType":5126,"count":250,"max":[0.8749695420265198,1],"min":[0,0],"type":"VEC2"},{"bufferView":3,"componentType":5125,"count":426,"max":[249],"min":[0],"type":"SCALAR"},{"bufferView":4,"componentType":5126,"count":36,"max":[0.4412505626678467,0.12283103168010712,0.8335022330284119],"min":[-0.41814762353897095,0.08182494342327118,-0.8335022330284119],"type":"VEC3"},{"bufferView":5,"componentType":5126,"count":36,"max":[1,1,1],"min":[-1,-1,-1],"type":"VEC3"},{"bufferView":6,"componentType":5126,"count":36,"max":[0.87493896484375,1],"min":[0.125,0],"type":"VEC2"},{"bufferView":7,"componentType":5125,"count":54,"max":[35],"min":[0],"type":"SCALAR"}],"materials":[{"pbrMetallicRoughness":{"baseColorFactor":[0.058823529411764705,0.058823529411764705,0.058823529411764705,1],"metallicFactor":0.8262910842895508,"roughnessFactor":0.34272301197052},"alphaMode":"BLEND","name":"MetalBlack"},{"pbrMetallicRoughness":{"baseColorFactor":[0.796078431372549,0.21568627450980393,0.0392156862745098,1],"metallicFactor":0,"roughnessFactor":0.5},"alphaMode":"BLEND","name":"DeskWood"}],"meshes":[{"primitives":[{"mode":4,"attributes":{"POSITION":0,"NORMAL":1,"TEXCOORD_0":2},"indices":3,"material":0}]},{"primitives":[{"mode":4,"attributes":{"POSITION":4,"NORMAL":5,"TEXCOORD_0":6},"indices":7,"material":1}]}]}