{
	"asset":{
		"generator":"Khronos glTF Blender I/O v4.1.63",
		"version":"2.0"
	},
	"scene":0,
	"scenes":[
		{
			"name":"Scene",
			"nodes":[
				0
			]
		}
	],
	"nodes":[
		{
			"mesh":0,
			"name":"lowpoly.obj",
			"rotation":[
				0.70710688829422,
				0,
				0,
				0.7071066498756409
			]
		}
	],
	"materials":[
		{
			"doubleSided":true,
			"name":"Material.001",
			"normalTexture":{
				"index":0
			},
			"pbrMetallicRoughness":{
				"baseColorTexture":{
					"index":1
				},
				"metallicRoughnessTexture":{
					"index":2
				}
			}
		},
		{
			"doubleSided":true,
			"emissiveTexture":{
				"index":3
			},
			"name":"Material.002",
			"normalTexture":{
				"index":4
			},
			"pbrMetallicRoughness":{
				"baseColorTexture":{
					"index":5
				},
				"metallicRoughnessTexture":{
					"index":6
				}
			}
		},
		{
			"doubleSided":true,
			"name":"Material.003",
			"normalTexture":{
				"index":7
			},
			"pbrMetallicRoughness":{
				"baseColorTexture":{
					"index":8
				},
				"metallicRoughnessTexture":{
					"index":9
				}
			}
		},
		{
			"doubleSided":true,
			"name":"Material.004",
			"normalTexture":{
				"index":10
			},
			"pbrMetallicRoughness":{
				"baseColorTexture":{
					"index":11
				},
				"metallicRoughnessTexture":{
					"index":12
				}
			}
		},
		{
			"doubleSided":true,
			"name":"Material.005",
			"normalTexture":{
				"index":13
			},
			"pbrMetallicRoughness":{
				"baseColorTexture":{
					"index":14
				},
				"metallicRoughnessTexture":{
					"index":15
				}
			}
		},
		{
			"doubleSided":true,
			"name":"Material.010",
			"normalTexture":{
				"index":16
			},
			"pbrMetallicRoughness":{
				"baseColorTexture":{
					"index":17
				},
				"metallicRoughnessTexture":{
					"index":18
				}
			}
		},
		{
			"doubleSided":true,
			"name":"Material.012",
			"normalTexture":{
				"index":19
			},
			"pbrMetallicRoughness":{
				"baseColorTexture":{
					"index":20
				},
				"metallicRoughnessTexture":{
					"index":21
				}
			}
		},
		{
			"doubleSided":true,
			"name":"Material.018",
			"normalTexture":{
				"index":22
			},
			"pbrMetallicRoughness":{
				"baseColorTexture":{
					"index":23
				},
				"metallicRoughnessTexture":{
					"index":24
				}
			}
		},
		{
			"doubleSided":true,
			"name":"Material.019",
			"normalTexture":{
				"index":25
			},
			"pbrMetallicRoughness":{
				"baseColorTexture":{
					"index":26
				},
				"metallicRoughnessTexture":{
					"index":27
				}
			}
		},
		{
			"doubleSided":true,
			"name":"Material.020",
			"normalTexture":{
				"index":28
			},
			"pbrMetallicRoughness":{
				"baseColorTexture":{
					"index":29
				},
				"metallicRoughnessTexture":{
					"index":30
				}
			}
		}
	],
	"meshes":[
		{
			"name":"lowpoly.obj.003",
			"primitives":[
				{
					"attributes":{
						"POSITION":0,
						"NORMAL":1,
						"TEXCOORD_0":2
					},
					"indices":3,
					"material":0
				},
				{
					"attributes":{
						"POSITION":4,
						"NORMAL":5,
						"TEXCOORD_0":6
					},
					"indices":7,
					"material":1
				},
				{
					"attributes":{
						"POSITION":8,
						"NORMAL":9,
						"TEXCOORD_0":10
					},
					"indices":11,
					"material":2
				},
				{
					"attributes":{
						"POSITION":12,
						"NORMAL":13,
						"TEXCOORD_0":14
					},
					"indices":15,
					"material":3
				},
				{
					"attributes":{
						"POSITION":16,
						"NORMAL":17,
						"TEXCOORD_0":18
					},
					"indices":19,
					"material":4
				},
				{
					"attributes":{
						"POSITION":20,
						"NORMAL":21,
						"TEXCOORD_0":22
					},
					"indices":23,
					"material":5
				},
				{
					"attributes":{
						"POSITION":24,
						"NORMAL":25,
						"TEXCOORD_0":26
					},
					"indices":27,
					"material":6
				},
				{
					"attributes":{
						"POSITION":28,
						"NORMAL":29,
						"TEXCOORD_0":30
					},
					"indices":27,
					"material":7
				},
				{
					"attributes":{
						"POSITION":31,
						"NORMAL":32,
						"TEXCOORD_0":33
					},
					"indices":23,
					"material":8
				},
				{
					"attributes":{
						"POSITION":34,
						"NORMAL":35,
						"TEXCOORD_0":36
					},
					"indices":37,
					"material":9
				}
			]
		}
	],
	"textures":[
		{
			"sampler":0,
			"source":0
		},
		{
			"sampler":0,
			"source":1
		},
		{
			"sampler":0,
			"source":2
		},
		{
			"sampler":0,
			"source":3
		},
		{
			"sampler":0,
			"source":4
		},
		{
			"sampler":0,
			"source":5
		},
		{
			"sampler":0,
			"source":6
		},
		{
			"sampler":0,
			"source":7
		},
		{
			"sampler":0,
			"source":8
		},
		{
			"sampler":0,
			"source":9
		},
		{
			"sampler":0,
			"source":10
		},
		{
			"sampler":0,
			"source":11
		},
		{
			"sampler":0,
			"source":12
		},
		{
			"sampler":0,
			"source":13
		},
		{
			"sampler":0,
			"source":14
		},
		{
			"sampler":0,
			"source":15
		},
		{
			"sampler":0,
			"source":16
		},
		{
			"sampler":0,
			"source":17
		},
		{
			"sampler":0,
			"source":18
		},
		{
			"sampler":0,
			"source":19
		},
		{
			"sampler":0,
			"source":20
		},
		{
			"sampler":0,
			"source":21
		},
		{
			"sampler":0,
			"source":19
		},
		{
			"sampler":0,
			"source":20
		},
		{
			"sampler":0,
			"source":21
		},
		{
			"sampler":0,
			"source":16
		},
		{
			"sampler":0,
			"source":17
		},
		{
			"sampler":0,
			"source":22
		},
		{
			"sampler":0,
			"source":23
		},
		{
			"sampler":0,
			"source":24
		},
		{
			"sampler":0,
			"source":25
		}
	],
	"images":[
		{
			"mimeType":"image/png",
			"name":"Desk_Normal_OpenGL",
			"uri":"Desk_Normal_OpenGL.png"
		},
		{
			"mimeType":"image/png",
			"name":"Desk_Base_Color",
			"uri":"Desk_Base_Color.png"
		},
		{
			"mimeType":"image/png",
			"name":"Desk_Metallic-Desk_Roughness",
			"uri":"Desk_Metallic-Desk_Roughness.png"
		},
		{
			"mimeType":"image/png",
			"name":"DeskLamp_Emissive",
			"uri":"DeskLamp_Emissive.png"
		},
		{
			"mimeType":"image/png",
			"name":"DeskLamp_Normal_OpenGL",
			"uri":"DeskLamp_Normal_OpenGL.png"
		},
		{
			"mimeType":"image/png",
			"name":"DeskLamp_Base_Color",
			"uri":"DeskLamp_Base_Color.png"
		},
		{
			"mimeType":"image/png",
			"name":"DeskLamp_Metallic-DeskLamp_Roughness",
			"uri":"DeskLamp_Metallic-DeskLamp_Roughness.png"
		},
		{
			"mimeType":"image/png",
			"name":"DeskChair_Normal_OpenGL",
			"uri":"DeskChair_Normal_OpenGL.png"
		},
		{
			"mimeType":"image/png",
			"name":"DeskChair_Base_Color",
			"uri":"DeskChair_Base_Color.png"
		},
		{
			"mimeType":"image/png",
			"name":"DeskChair_Metallic-DeskChair_Roughness",
			"uri":"DeskChair_Metallic-DeskChair_Roughness.png"
		},
		{
			"mimeType":"image/png",
			"name":"RubbishBin_Normal_OpenGL",
			"uri":"RubbishBin_Normal_OpenGL.png"
		},
		{
			"mimeType":"image/png",
			"name":"RubbishBin_Base_Color",
			"uri":"RubbishBin_Base_Color.png"
		},
		{
			"mimeType":"image/png",
			"name":"RubbishBin_Metallic-RubbishBin_Roughness",
			"uri":"RubbishBin_Metallic-RubbishBin_Roughness.png"
		},
		{
			"mimeType":"image/png",
			"name":"UtensilCup_Normal_OpenGL",
			"uri":"UtensilCup_Normal_OpenGL.png"
		},
		{
			"mimeType":"image/png",
			"name":"UtensilCup_Base_Color",
			"uri":"UtensilCup_Base_Color.png"
		},
		{
			"mimeType":"image/png",
			"name":"UtensilCup_Metallic-UtensilCup_Roughness",
			"uri":"UtensilCup_Metallic-UtensilCup_Roughness.png"
		},
		{
			"mimeType":"image/png",
			"name":"PaperStack_Normal_OpenGL",
			"uri":"PaperStack_Normal_OpenGL.png"
		},
		{
			"mimeType":"image/png",
			"name":"PaperStack_Base_Color2",
			"uri":"PaperStack_Base_Color2.png"
		},
		{
			"mimeType":"image/png",
			"name":"PaperStack_Metallic-PaperStack_Roughness",
			"uri":"PaperStack_Metallic-PaperStack_Roughness.png"
		},
		{
			"mimeType":"image/png",
			"name":"PaperTray_Normal_OpenGL",
			"uri":"PaperTray_Normal_OpenGL.png"
		},
		{
			"mimeType":"image/png",
			"name":"PaperTray_Base_Color",
			"uri":"PaperTray_Base_Color.png"
		},
		{
			"mimeType":"image/png",
			"name":"PaperTray_Metallic_png-PaperTray_Roughness",
			"uri":"PaperTray_Metallic_png-PaperTray_Roughness.png"
		},
		{
			"mimeType":"image/png",
			"name":"PaperStack_Metallic_png-PaperStack_Roughness",
			"uri":"PaperStack_Metallic_png-PaperStack_Roughness.png"
		},
		{
			"mimeType":"image/png",
			"name":"CupCoffee_Normal_OpenGL",
			"uri":"CupCoffee_Normal_OpenGL.png"
		},
		{
			"mimeType":"image/png",
			"name":"CupCoffee_Base_Color",
			"uri":"CupCoffee_Base_Color.png"
		},
		{
			"mimeType":"image/png",
			"name":"CupCoffee_Metallic-CupCoffee_Roughness",
			"uri":"CupCoffee_Metallic-CupCoffee_Roughness.png"
		}
	],
	"accessors":[
		{
			"bufferView":0,
			"componentType":5126,
			"count":746,
			"max":[
				1,
				0.38005614280700684,
				5.614757537841797e-05
			],
			"min":[
				-1,
				-0.3799999952316284,
				-0.7599999904632568
			],
			"type":"VEC3"
		},
		{
			"bufferView":1,
			"componentType":5126,
			"count":746,
			"type":"VEC3"
		},
		{
			"bufferView":2,
			"componentType":5126,
			"count":746,
			"type":"VEC2"
		},
		{
			"bufferView":3,
			"componentType":5123,
			"count":1056,
			"type":"SCALAR"
		},
		{
			"bufferView":4,
			"componentType":5126,
			"count":1098,
			"max":[
				0.6277530193328857,
				0.07353328168392181,
				-0.7599998116493225
			],
			"min":[
				0.31382912397384644,
				-0.2069896012544632,
				-1.2549998760223389
			],
			"type":"VEC3"
		},
		{
			"bufferView":5,
			"componentType":5126,
			"count":1098,
			"type":"VEC3"
		},
		{
			"bufferView":6,
			"componentType":5126,
			"count":1098,
			"type":"VEC2"
		},
		{
			"bufferView":7,
			"componentType":5123,
			"count":1476,
			"type":"SCALAR"
		},
		{
			"bufferView":8,
			"componentType":5126,
			"count":4527,
			"max":[
				0.5832746624946594,
				1.082100749015808,
				-1.1339659522491274e-06
			],
			"min":[
				-0.07844811677932739,
				0.3792552351951599,
				-1.0839632749557495
			],
			"type":"VEC3"
		},
		{
			"bufferView":9,
			"componentType":5126,
			"count":4527,
			"type":"VEC3"
		},
		{
			"bufferView":10,
			"componentType":5126,
			"count":4527,
			"type":"VEC2"
		},
		{
			"bufferView":11,
			"componentType":5123,
			"count":5904,
			"type":"SCALAR"
		},
		{
			"bufferView":12,
			"componentType":5126,
			"count":520,
			"max":[
				1.3102977275848389,
				0.27503979206085205,
				1.3915579799572697e-08
			],
			"min":[
				1.0326331853866577,
				-0.09663132578134537,
				-0.3837500512599945
			],
			"type":"VEC3"
		},
		{
			"bufferView":13,
			"componentType":5126,
			"count":520,
			"type":"VEC3"
		},
		{
			"bufferView":14,
			"componentType":5126,
			"count":520,
			"type":"VEC2"
		},
		{
			"bufferView":15,
			"componentType":5123,
			"count":672,
			"type":"SCALAR"
		},
		{
			"bufferView":16,
			"componentType":5126,
			"count":2001,
			"max":[
				-0.25380316376686096,
				-0.0987754613161087,
				-0.7552404999732971
			],
			"min":[
				-0.36133456230163574,
				-0.19984391331672668,
				-0.914015531539917
			],
			"type":"VEC3"
		},
		{
			"bufferView":17,
			"componentType":5126,
			"count":2001,
			"type":"VEC3"
		},
		{
			"bufferView":18,
			"componentType":5126,
			"count":2001,
			"type":"VEC2"
		},
		{
			"bufferView":19,
			"componentType":5123,
			"count":2472,
			"type":"SCALAR"
		},
		{
			"bufferView":20,
			"componentType":5126,
			"count":32,
			"max":[
				-0.42011427879333496,
				-0.0009214878082275391,
				-0.7804088592529297
			],
			"min":[
				-0.7636313438415527,
				-0.3124951422214508,
				-0.8004052639007568
			],
			"type":"VEC3"
		},
		{
			"bufferView":21,
			"componentType":5126,
			"count":32,
			"type":"VEC3"
		},
		{
			"bufferView":22,
			"componentType":5126,
			"count":32,
			"type":"VEC2"
		},
		{
			"bufferView":23,
			"componentType":5123,
			"count":48,
			"type":"SCALAR"
		},
		{
			"bufferView":24,
			"componentType":5126,
			"count":372,
			"max":[
				-0.3715961277484894,
				0.04227262735366821,
				-0.7598061561584473
			],
			"min":[
				-0.8121499419212341,
				-0.3556903898715973,
				-0.8498117327690125
			],
			"type":"VEC3"
		},
		{
			"bufferView":25,
			"componentType":5126,
			"count":372,
			"type":"VEC3"
		},
		{
			"bufferView":26,
			"componentType":5126,
			"count":372,
			"type":"VEC2"
		},
		{
			"bufferView":27,
			"componentType":5123,
			"count":552,
			"type":"SCALAR"
		},
		{
			"bufferView":28,
			"componentType":5126,
			"count":372,
			"max":[
				-0.3715961277484894,
				0.042272597551345825,
				-0.8373199701309204
			],
			"min":[
				-0.8121500015258789,
				-0.3556904196739197,
				-0.9273256063461304
			],
			"type":"VEC3"
		},
		{
			"bufferView":29,
			"componentType":5126,
			"count":372,
			"type":"VEC3"
		},
		{
			"bufferView":30,
			"componentType":5126,
			"count":372,
			"type":"VEC2"
		},
		{
			"bufferView":31,
			"componentType":5126,
			"count":32,
			"max":[
				-0.4201142489910126,
				-0.0009215027093887329,
				-0.8579226732254028
			],
			"min":[
				-0.7636313438415527,
				-0.3124951720237732,
				-0.87791907787323
			],
			"type":"VEC3"
		},
		{
			"bufferView":32,
			"componentType":5126,
			"count":32,
			"type":"VEC3"
		},
		{
			"bufferView":33,
			"componentType":5126,
			"count":32,
			"type":"VEC2"
		},
		{
			"bufferView":34,
			"componentType":5126,
			"count":569,
			"max":[
				0.5546618103981018,
				0.24337297677993774,
				-0.7599990367889404
			],
			"min":[
				0.4741978347301483,
				0.12548601627349854,
				-0.8550000190734863
			],
			"type":"VEC3"
		},
		{
			"bufferView":35,
			"componentType":5126,
			"count":569,
			"type":"VEC3"
		},
		{
			"bufferView":36,
			"componentType":5126,
			"count":569,
			"type":"VEC2"
		},
		{
			"bufferView":37,
			"componentType":5123,
			"count":756,
			"type":"SCALAR"
		}
	],
	"bufferViews":[
		{
			"buffer":0,
			"byteLength":8952,
			"byteOffset":0,
			"target":34962
		},
		{
			"buffer":0,
			"byteLength":8952,
			"byteOffset":8952,
			"target":34962
		},
		{
			"buffer":0,
			"byteLength":5968,
			"byteOffset":17904,
			"target":34962
		},
		{
			"buffer":0,
			"byteLength":2112,
			"byteOffset":23872,
			"target":34963
		},
		{
			"buffer":0,
			"byteLength":13176,
			"byteOffset":25984,
			"target":34962
		},
		{
			"buffer":0,
			"byteLength":13176,
			"byteOffset":39160,
			"target":34962
		},
		{
			"buffer":0,
			"byteLength":8784,
			"byteOffset":52336,
			"target":34962
		},
		{
			"buffer":0,
			"byteLength":2952,
			"byteOffset":61120,
			"target":34963
		},
		{
			"buffer":0,
			"byteLength":54324,
			"byteOffset":64072,
			"target":34962
		},
		{
			"buffer":0,
			"byteLength":54324,
			"byteOffset":118396,
			"target":34962
		},
		{
			"buffer":0,
			"byteLength":36216,
			"byteOffset":172720,
			"target":34962
		},
		{
			"buffer":0,
			"byteLength":11808,
			"byteOffset":208936,
			"target":34963
		},
		{
			"buffer":0,
			"byteLength":6240,
			"byteOffset":220744,
			"target":34962
		},
		{
			"buffer":0,
			"byteLength":6240,
			"byteOffset":226984,
			"target":34962
		},
		{
			"buffer":0,
			"byteLength":4160,
			"byteOffset":233224,
			"target":34962
		},
		{
			"buffer":0,
			"byteLength":1344,
			"byteOffset":237384,
			"target":34963
		},
		{
			"buffer":0,
			"byteLength":24012,
			"byteOffset":238728,
			"target":34962
		},
		{
			"buffer":0,
			"byteLength":24012,
			"byteOffset":262740,
			"target":34962
		},
		{
			"buffer":0,
			"byteLength":16008,
			"byteOffset":286752,
			"target":34962
		},
		{
			"buffer":0,
			"byteLength":4944,
			"byteOffset":302760,
			"target":34963
		},
		{
			"buffer":0,
			"byteLength":384,
			"byteOffset":307704,
			"target":34962
		},
		{
			"buffer":0,
			"byteLength":384,
			"byteOffset":308088,
			"target":34962
		},
		{
			"buffer":0,
			"byteLength":256,
			"byteOffset":308472,
			"target":34962
		},
		{
			"buffer":0,
			"byteLength":96,
			"byteOffset":308728,
			"target":34963
		},
		{
			"buffer":0,
			"byteLength":4464,
			"byteOffset":308824,
			"target":34962
		},
		{
			"buffer":0,
			"byteLength":4464,
			"byteOffset":313288,
			"target":34962
		},
		{
			"buffer":0,
			"byteLength":2976,
			"byteOffset":317752,
			"target":34962
		},
		{
			"buffer":0,
			"byteLength":1104,
			"byteOffset":320728,
			"target":34963
		},
		{
			"buffer":0,
			"byteLength":4464,
			"byteOffset":321832,
			"target":34962
		},
		{
			"buffer":0,
			"byteLength":4464,
			"byteOffset":326296,
			"target":34962
		},
		{
			"buffer":0,
			"byteLength":2976,
			"byteOffset":330760,
			"target":34962
		},
		{
			"buffer":0,
			"byteLength":384,
			"byteOffset":333736,
			"target":34962
		},
		{
			"buffer":0,
			"byteLength":384,
			"byteOffset":334120,
			"target":34962
		},
		{
			"buffer":0,
			"byteLength":256,
			"byteOffset":334504,
			"target":34962
		},
		{
			"buffer":0,
			"byteLength":6828,
			"byteOffset":334760,
			"target":34962
		},
		{
			"buffer":0,
			"byteLength":6828,
			"byteOffset":341588,
			"target":34962
		},
		{
			"buffer":0,
			"byteLength":4552,
			"byteOffset":348416,
			"target":34962
		},
		{
			"buffer":0,
			"byteLength":1512,
			"byteOffset":352968,
			"target":34963
		}
	],
	"samplers":[
		{
			"magFilter":9729,
			"minFilter":9987
		}
	],
	"buffers":[
		{
			"byteLength":354480,
			"uri":"scene.bin"
		}
	]
}
