{
	"asset":{
		"generator":"Khronos glTF Blender I/O v4.1.63",
		"version":"2.0"
	},
	"scene":0,
	"scenes":[
		{
			"name":"Scene",
			"nodes":[
				0,
				1,
				2,
				3,
				4,
				5,
				6,
				7,
				8,
				9
			]
		}
	],
	"nodes":[
		{
			"mesh":0,
			"name":"lowpoly.obj",
			"rotation":[
				0.7071068286895752,
				0,
				0,
				0.7071068286895752
			],
			"scale":[
				3.3016390800476074,
				3.3016390800476074,
				3.3016390800476074
			],
			"translation":[
				0.09489662945270538,
				-2.521968126296997,
				-0.051922161132097244
			]
		},
		{
			"mesh":1,
			"name":"lowpoly.obj.001",
			"rotation":[
				0.6389642357826233,
				-0.302860826253891,
				0.3028607964515686,
				0.6389642953872681
			],
			"scale":[
				3.301638603210449,
				3.301638603210449,
				3.3016390800476074
			],
			"translation":[
				1.5989189147949219,
				-0.012722797691822052,
				-0.2213819921016693
			]
		},
		{
			"mesh":2,
			"name":"DeskChair.obj",
			"rotation":[
				0.1609838604927063,
				-0.6885378360748291,
				0.6885377168655396,
				0.1609838604927063
			],
			"scale":[
				3.3016395568847656,
				3.3016395568847656,
				3.3016390800476074
			],
			"translation":[
				0.9744542241096497,
				-2.521968126296997,
				2.3375885486602783
			]
		},
		{
			"mesh":3,
			"name":"RubbishBin.obj",
			"rotation":[
				0.5243517756462097,
				0.4743998944759369,
				-0.4743998646736145,
				0.5243517756462097
			],
			"scale":[
				3.3016390800476074,
				3.3016390800476074,
				3.3016390800476074
			],
			"translation":[
				3.962665557861328,
				-2.521968126296997,
				0.24259355664253235
			]
		},
		{
			"mesh":4,
			"name":"UtensilCupWith.obj",
			"rotation":[
				0.6560918092727661,
				-0.26371103525161743,
				0.26371100544929504,
				0.6560918688774109
			],
			"scale":[
				3.3016393184661865,
				3.3016393184661865,
				3.3016390800476074
			],
			"translation":[
				-0.9206345081329346,
				-0.02843625098466873,
				-0.525892436504364
			]
		},
		{
			"mesh":5,
			"name":"lowpoly.obj.005",
			"rotation":[
				0.581620454788208,
				-0.40214142203330994,
				0.40214139223098755,
				0.5816205143928528
			],
			"scale":[
				3.3016388416290283,
				3.3016388416290283,
				3.3016390800476074
			],
			"translation":[
				1.7933580875396729,
				-0.01272255927324295,
				0.49521970748901367
			]
		},
		{
			"mesh":6,
			"name":"lowpoly.obj.003",
			"rotation":[
				0.6990649700164795,
				0.10633976012468338,
				-0.10633974522352219,
				0.699065089225769
			],
			"scale":[
				3.3016390800476074,
				3.3016390800476074,
				3.3016390800476074
			],
			"translation":[
				-1.9814200401306152,
				0.053310565650463104,
				-0.5164507031440735
			]
		},
		{
			"mesh":7,
			"name":"lowpoly.obj.004",
			"rotation":[
				0.6990649700164795,
				0.10633976012468338,
				-0.10633974522352219,
				0.699065089225769
			],
			"scale":[
				3.3016390800476074,
				3.3016390800476074,
				3.3016390800476074
			],
			"translation":[
				-1.9765596389770508,
				-0.012722082436084747,
				-0.5088580250740051
			]
		},
		{
			"mesh":8,
			"name":"lowpoly.obj.006",
			"rotation":[
				0.6990649700164795,
				0.10633976012468338,
				-0.10633974522352219,
				0.699065089225769
			],
			"scale":[
				3.3016390800476074,
				3.3016390800476074,
				3.3016390800476074
			],
			"translation":[
				-1.9765596389770508,
				0.2821980118751526,
				-0.5088580250740051
			]
		},
		{
			"mesh":9,
			"name":"lowpoly.obj.007",
			"rotation":[
				0.6990649700164795,
				0.10633976012468338,
				-0.10633974522352219,
				0.699065089225769
			],
			"scale":[
				3.3016390800476074,
				3.3016390800476074,
				3.3016390800476074
			],
			"translation":[
				-1.9814200401306152,
				0.34823065996170044,
				-0.5164507031440735
			]
		}
	],
	"materials":[
		{
			"doubleSided":true,
			"name":"Material.006",
			"normalTexture":{
				"index":0
			},
			"pbrMetallicRoughness":{
				"baseColorTexture":{
					"index":1
				},
				"metallicRoughnessTexture":{
					"index":2
				}
			}
		},
		{
			"doubleSided":true,
			"emissiveTexture":{
				"index":3
			},
			"name":"Material.007",
			"normalTexture":{
				"index":4
			},
			"pbrMetallicRoughness":{
				"baseColorTexture":{
					"index":5
				},
				"metallicRoughnessTexture":{
					"index":6
				}
			}
		},
		{
			"doubleSided":true,
			"name":"Material.008",
			"normalTexture":{
				"index":7
			},
			"pbrMetallicRoughness":{
				"baseColorTexture":{
					"index":8
				},
				"metallicRoughnessTexture":{
					"index":9
				}
			}
		},
		{
			"doubleSided":true,
			"name":"Material.009",
			"normalTexture":{
				"index":10
			},
			"pbrMetallicRoughness":{
				"baseColorTexture":{
					"index":11
				},
				"metallicRoughnessTexture":{
					"index":12
				}
			}
		},
		{
			"doubleSided":true,
			"name":"Material.011",
			"normalTexture":{
				"index":13
			},
			"pbrMetallicRoughness":{
				"baseColorTexture":{
					"index":14
				},
				"metallicRoughnessTexture":{
					"index":15
				}
			}
		},
		{
			"doubleSided":true,
			"name":"Material.017",
			"normalTexture":{
				"index":16
			},
			"pbrMetallicRoughness":{
				"baseColorTexture":{
					"index":17
				},
				"metallicRoughnessTexture":{
					"index":18
				}
			}
		},
		{
			"doubleSided":true,
			"name":"Material.002",
			"normalTexture":{
				"index":19
			},
			"pbrMetallicRoughness":{
				"baseColorTexture":{
					"index":20
				},
				"metallicRoughnessTexture":{
					"index":21
				}
			}
		},
		{
			"doubleSided":true,
			"name":"Material.001",
			"normalTexture":{
				"index":22
			},
			"pbrMetallicRoughness":{
				"baseColorTexture":{
					"index":23
				},
				"metallicRoughnessTexture":{
					"index":24
				}
			}
		},
		{
			"doubleSided":true,
			"name":"Material.004",
			"normalTexture":{
				"index":25
			},
			"pbrMetallicRoughness":{
				"baseColorTexture":{
					"index":26
				},
				"metallicRoughnessTexture":{
					"index":27
				}
			}
		},
		{
			"doubleSided":true,
			"name":"Material.018",
			"normalTexture":{
				"index":28
			},
			"pbrMetallicRoughness":{
				"baseColorTexture":{
					"index":29
				},
				"metallicRoughnessTexture":{
					"index":30
				}
			}
		}
	],
	"meshes":[
		{
			"name":"lowpoly.obj.003",
			"primitives":[
				{
					"attributes":{
						"POSITION":0,
						"NORMAL":1,
						"TEXCOORD_0":2
					},
					"indices":3,
					"material":0
				}
			]
		},
		{
			"name":"lowpoly.obj.004",
			"primitives":[
				{
					"attributes":{
						"POSITION":4,
						"NORMAL":5,
						"TEXCOORD_0":6
					},
					"indices":7,
					"material":1
				}
			]
		},
		{
			"name":"DeskChair.obj",
			"primitives":[
				{
					"attributes":{
						"POSITION":8,
						"NORMAL":9,
						"TEXCOORD_0":10
					},
					"indices":11,
					"material":2
				}
			]
		},
		{
			"name":"RubbishBin.obj",
			"primitives":[
				{
					"attributes":{
						"POSITION":12,
						"NORMAL":13,
						"TEXCOORD_0":14
					},
					"indices":15,
					"material":3
				}
			]
		},
		{
			"name":"UtensilCupWith.obj",
			"primitives":[
				{
					"attributes":{
						"POSITION":16,
						"NORMAL":17,
						"TEXCOORD_0":18
					},
					"indices":19,
					"material":4
				}
			]
		},
		{
			"name":"lowpoly.obj.011",
			"primitives":[
				{
					"attributes":{
						"POSITION":20,
						"NORMAL":21,
						"TEXCOORD_0":22
					},
					"indices":23,
					"material":5
				}
			]
		},
		{
			"name":"lowpoly.obj",
			"primitives":[
				{
					"attributes":{
						"POSITION":24,
						"NORMAL":25,
						"TEXCOORD_0":26
					},
					"indices":27,
					"material":6
				}
			]
		},
		{
			"name":"lowpoly.obj.001",
			"primitives":[
				{
					"attributes":{
						"POSITION":28,
						"NORMAL":29,
						"TEXCOORD_0":30
					},
					"indices":31,
					"material":7
				}
			]
		},
		{
			"name":"lowpoly.obj.002",
			"primitives":[
				{
					"attributes":{
						"POSITION":32,
						"NORMAL":33,
						"TEXCOORD_0":34
					},
					"indices":31,
					"material":8
				}
			]
		},
		{
			"name":"lowpoly.obj.005",
			"primitives":[
				{
					"attributes":{
						"POSITION":35,
						"NORMAL":36,
						"TEXCOORD_0":37
					},
					"indices":27,
					"material":9
				}
			]
		}
	],
	"textures":[
		{
			"sampler":0,
			"source":0
		},
		{
			"sampler":0,
			"source":1
		},
		{
			"sampler":0,
			"source":2
		},
		{
			"sampler":0,
			"source":3
		},
		{
			"sampler":0,
			"source":4
		},
		{
			"sampler":0,
			"source":5
		},
		{
			"sampler":0,
			"source":6
		},
		{
			"sampler":0,
			"source":7
		},
		{
			"sampler":0,
			"source":8
		},
		{
			"sampler":0,
			"source":9
		},
		{
			"sampler":0,
			"source":10
		},
		{
			"sampler":0,
			"source":11
		},
		{
			"sampler":0,
			"source":12
		},
		{
			"sampler":0,
			"source":13
		},
		{
			"sampler":0,
			"source":14
		},
		{
			"sampler":0,
			"source":15
		},
		{
			"sampler":0,
			"source":16
		},
		{
			"sampler":0,
			"source":17
		},
		{
			"sampler":0,
			"source":18
		},
		{
			"sampler":0,
			"source":19
		},
		{
			"sampler":0,
			"source":20
		},
		{
			"sampler":0,
			"source":21
		},
		{
			"sampler":0,
			"source":22
		},
		{
			"sampler":0,
			"source":23
		},
		{
			"sampler":0,
			"source":24
		},
		{
			"sampler":0,
			"source":22
		},
		{
			"sampler":0,
			"source":23
		},
		{
			"sampler":0,
			"source":24
		},
		{
			"sampler":0,
			"source":19
		},
		{
			"sampler":0,
			"source":20
		},
		{
			"sampler":0,
			"source":21
		}
	],
	"images":[
		{
			"mimeType":"image/png",
			"name":"Desk_Normal_OpenGL",
			"uri":"Desk_Normal_OpenGL.png"
		},
		{
			"mimeType":"image/png",
			"name":"Desk_Base_Color",
			"uri":"Desk_Base_Color.png"
		},
		{
			"mimeType":"image/png",
			"name":"Desk_Metallic-Desk_Roughness",
			"uri":"Desk_Metallic-Desk_Roughness.png"
		},
		{
			"mimeType":"image/png",
			"name":"DeskLamp_Emissive",
			"uri":"DeskLamp_Emissive.png"
		},
		{
			"mimeType":"image/png",
			"name":"DeskLamp_Normal_OpenGL",
			"uri":"DeskLamp_Normal_OpenGL.png"
		},
		{
			"mimeType":"image/png",
			"name":"DeskLamp_Base_Color",
			"uri":"DeskLamp_Base_Color.png"
		},
		{
			"mimeType":"image/png",
			"name":"DeskLamp_Metallic-DeskLamp_Roughness",
			"uri":"DeskLamp_Metallic-DeskLamp_Roughness.png"
		},
		{
			"mimeType":"image/png",
			"name":"DeskChair_Normal_OpenGL",
			"uri":"DeskChair_Normal_OpenGL.png"
		},
		{
			"mimeType":"image/png",
			"name":"DeskChair_Base_Color",
			"uri":"DeskChair_Base_Color.png"
		},
		{
			"mimeType":"image/png",
			"name":"DeskChair_Metallic-DeskChair_Roughness",
			"uri":"DeskChair_Metallic-DeskChair_Roughness.png"
		},
		{
			"mimeType":"image/png",
			"name":"RubbishBin_Normal_OpenGL",
			"uri":"RubbishBin_Normal_OpenGL.png"
		},
		{
			"mimeType":"image/png",
			"name":"RubbishBin_Base_Color",
			"uri":"RubbishBin_Base_Color.png"
		},
		{
			"mimeType":"image/png",
			"name":"RubbishBin_Metallic-RubbishBin_Roughness",
			"uri":"RubbishBin_Metallic-RubbishBin_Roughness.png"
		},
		{
			"mimeType":"image/png",
			"name":"UtensilCup_Normal_OpenGL",
			"uri":"UtensilCup_Normal_OpenGL.png"
		},
		{
			"mimeType":"image/png",
			"name":"UtensilCup_Base_Color",
			"uri":"UtensilCup_Base_Color.png"
		},
		{
			"mimeType":"image/png",
			"name":"UtensilCup_Metallic-UtensilCup_Roughness",
			"uri":"UtensilCup_Metallic-UtensilCup_Roughness.png"
		},
		{
			"mimeType":"image/png",
			"name":"CupCoffee_Normal_OpenGL",
			"uri":"CupCoffee_Normal_OpenGL.png"
		},
		{
			"mimeType":"image/png",
			"name":"CupCoffee_Base_Color",
			"uri":"CupCoffee_Base_Color.png"
		},
		{
			"mimeType":"image/png",
			"name":"CupCoffee_Metallic-CupCoffee_Roughness",
			"uri":"CupCoffee_Metallic-CupCoffee_Roughness.png"
		},
		{
			"mimeType":"image/png",
			"name":"PaperStack_Normal_OpenGL",
			"uri":"PaperStack_Normal_OpenGL.png"
		},
		{
			"mimeType":"image/png",
			"name":"PaperStack_Base_Color",
			"uri":"PaperStack_Base_Color.png"
		},
		{
			"mimeType":"image/png",
			"name":"PaperStack_Metallic.png-PaperStack_Roughness.png",
			"uri":"PaperStack_Metallic_png-PaperStack_Roughness_png.png"
		},
		{
			"mimeType":"image/png",
			"name":"PaperTray_Normal_OpenGL",
			"uri":"PaperTray_Normal_OpenGL.png"
		},
		{
			"mimeType":"image/png",
			"name":"PaperTray_Base_Color",
			"uri":"PaperTray_Base_Color.png"
		},
		{
			"mimeType":"image/png",
			"name":"PaperTray_Metallic.png-PaperTray_Roughness.png",
			"uri":"PaperTray_Metallic_png-PaperTray_Roughness_png.png"
		}
	],
	"accessors":[
		{
			"bufferView":0,
			"componentType":5126,
			"count":592,
			"max":[
				1,
				0.3799999952316284,
				0
			],
			"min":[
				-1,
				-0.3799999952316284,
				-0.7599999904632568
			],
			"type":"VEC3"
		},
		{
			"bufferView":1,
			"componentType":5126,
			"count":592,
			"type":"VEC3"
		},
		{
			"bufferView":2,
			"componentType":5126,
			"count":592,
			"type":"VEC2"
		},
		{
			"bufferView":3,
			"componentType":5123,
			"count":1056,
			"type":"SCALAR"
		},
		{
			"bufferView":4,
			"componentType":5126,
			"count":763,
			"max":[
				0.05999999865889549,
				0.15444500744342804,
				0
			],
			"min":[
				-0.05999999865889549,
				-0.17749999463558197,
				-0.4950000047683716
			],
			"type":"VEC3"
		},
		{
			"bufferView":5,
			"componentType":5126,
			"count":763,
			"type":"VEC3"
		},
		{
			"bufferView":6,
			"componentType":5126,
			"count":763,
			"type":"VEC2"
		},
		{
			"bufferView":7,
			"componentType":5123,
			"count":1476,
			"type":"SCALAR"
		},
		{
			"bufferView":8,
			"componentType":5126,
			"count":3234,
			"max":[
				0.32470500469207764,
				0.33250001072883606,
				-9.999999974752427e-07
			],
			"min":[
				-0.32470500469207764,
				-0.29781800508499146,
				-1.0839630365371704
			],
			"type":"VEC3"
		},
		{
			"bufferView":9,
			"componentType":5126,
			"count":3234,
			"type":"VEC3"
		},
		{
			"bufferView":10,
			"componentType":5126,
			"count":3234,
			"type":"VEC2"
		},
		{
			"bufferView":11,
			"componentType":5123,
			"count":5904,
			"type":"SCALAR"
		},
		{
			"bufferView":12,
			"componentType":5126,
			"count":388,
			"max":[
				0.18000000715255737,
				0.1274999976158142,
				0
			],
			"min":[
				-0.18000000715255737,
				-0.1274999976158142,
				-0.38374999165534973
			],
			"type":"VEC3"
		},
		{
			"bufferView":13,
			"componentType":5126,
			"count":388,
			"type":"VEC3"
		},
		{
			"bufferView":14,
			"componentType":5126,
			"count":388,
			"type":"VEC2"
		},
		{
			"bufferView":15,
			"componentType":5123,
			"count":672,
			"type":"SCALAR"
		},
		{
			"bufferView":16,
			"componentType":5126,
			"count":1389,
			"max":[
				0.052494000643491745,
				0.05302099883556366,
				0
			],
			"min":[
				-0.053578998893499374,
				-0.050248999148607254,
				-0.15877500176429749
			],
			"type":"VEC3"
		},
		{
			"bufferView":17,
			"componentType":5126,
			"count":1389,
			"type":"VEC3"
		},
		{
			"bufferView":18,
			"componentType":5126,
			"count":1389,
			"type":"VEC2"
		},
		{
			"bufferView":19,
			"componentType":5123,
			"count":2472,
			"type":"SCALAR"
		},
		{
			"bufferView":20,
			"componentType":5126,
			"count":429,
			"max":[
				0.07999999821186066,
				0.03999999910593033,
				0
			],
			"min":[
				-0.03999999910593033,
				-0.03999999910593033,
				-0.0949999988079071
			],
			"type":"VEC3"
		},
		{
			"bufferView":21,
			"componentType":5126,
			"count":429,
			"type":"VEC3"
		},
		{
			"bufferView":22,
			"componentType":5126,
			"count":429,
			"type":"VEC2"
		},
		{
			"bufferView":23,
			"componentType":5123,
			"count":756,
			"type":"SCALAR"
		},
		{
			"bufferView":24,
			"componentType":5126,
			"count":30,
			"max":[
				0.14000000059604645,
				0.10999999940395355,
				0
			],
			"min":[
				-0.14000000059604645,
				-0.10999999940395355,
				-0.019999999552965164
			],
			"type":"VEC3"
		},
		{
			"bufferView":25,
			"componentType":5126,
			"count":30,
			"type":"VEC3"
		},
		{
			"bufferView":26,
			"componentType":5126,
			"count":30,
			"type":"VEC2"
		},
		{
			"bufferView":27,
			"componentType":5123,
			"count":48,
			"type":"SCALAR"
		},
		{
			"bufferView":28,
			"componentType":5126,
			"count":295,
			"max":[
				0.18000000715255737,
				0.14000000059604645,
				0
			],
			"min":[
				-0.18000000715255737,
				-0.14000000059604645,
				-0.09000000357627869
			],
			"type":"VEC3"
		},
		{
			"bufferView":29,
			"componentType":5126,
			"count":295,
			"type":"VEC3"
		},
		{
			"bufferView":30,
			"componentType":5126,
			"count":295,
			"type":"VEC2"
		},
		{
			"bufferView":31,
			"componentType":5123,
			"count":552,
			"type":"SCALAR"
		},
		{
			"bufferView":32,
			"componentType":5126,
			"count":295,
			"max":[
				0.18000000715255737,
				0.14000000059604645,
				0
			],
			"min":[
				-0.18000000715255737,
				-0.14000000059604645,
				-0.09000000357627869
			],
			"type":"VEC3"
		},
		{
			"bufferView":33,
			"componentType":5126,
			"count":295,
			"type":"VEC3"
		},
		{
			"bufferView":34,
			"componentType":5126,
			"count":295,
			"type":"VEC2"
		},
		{
			"bufferView":35,
			"componentType":5126,
			"count":30,
			"max":[
				0.14000000059604645,
				0.10999999940395355,
				0
			],
			"min":[
				-0.14000000059604645,
				-0.10999999940395355,
				-0.019999999552965164
			],
			"type":"VEC3"
		},
		{
			"bufferView":36,
			"componentType":5126,
			"count":30,
			"type":"VEC3"
		},
		{
			"bufferView":37,
			"componentType":5126,
			"count":30,
			"type":"VEC2"
		}
	],
	"bufferViews":[
		{
			"buffer":0,
			"byteLength":7104,
			"byteOffset":0,
			"target":34962
		},
		{
			"buffer":0,
			"byteLength":7104,
			"byteOffset":7104,
			"target":34962
		},
		{
			"buffer":0,
			"byteLength":4736,
			"byteOffset":14208,
			"target":34962
		},
		{
			"buffer":0,
			"byteLength":2112,
			"byteOffset":18944,
			"target":34963
		},
		{
			"buffer":0,
			"byteLength":9156,
			"byteOffset":21056,
			"target":34962
		},
		{
			"buffer":0,
			"byteLength":9156,
			"byteOffset":30212,
			"target":34962
		},
		{
			"buffer":0,
			"byteLength":6104,
			"byteOffset":39368,
			"target":34962
		},
		{
			"buffer":0,
			"byteLength":2952,
			"byteOffset":45472,
			"target":34963
		},
		{
			"buffer":0,
			"byteLength":38808,
			"byteOffset":48424,
			"target":34962
		},
		{
			"buffer":0,
			"byteLength":38808,
			"byteOffset":87232,
			"target":34962
		},
		{
			"buffer":0,
			"byteLength":25872,
			"byteOffset":126040,
			"target":34962
		},
		{
			"buffer":0,
			"byteLength":11808,
			"byteOffset":151912,
			"target":34963
		},
		{
			"buffer":0,
			"byteLength":4656,
			"byteOffset":163720,
			"target":34962
		},
		{
			"buffer":0,
			"byteLength":4656,
			"byteOffset":168376,
			"target":34962
		},
		{
			"buffer":0,
			"byteLength":3104,
			"byteOffset":173032,
			"target":34962
		},
		{
			"buffer":0,
			"byteLength":1344,
			"byteOffset":176136,
			"target":34963
		},
		{
			"buffer":0,
			"byteLength":16668,
			"byteOffset":177480,
			"target":34962
		},
		{
			"buffer":0,
			"byteLength":16668,
			"byteOffset":194148,
			"target":34962
		},
		{
			"buffer":0,
			"byteLength":11112,
			"byteOffset":210816,
			"target":34962
		},
		{
			"buffer":0,
			"byteLength":4944,
			"byteOffset":221928,
			"target":34963
		},
		{
			"buffer":0,
			"byteLength":5148,
			"byteOffset":226872,
			"target":34962
		},
		{
			"buffer":0,
			"byteLength":5148,
			"byteOffset":232020,
			"target":34962
		},
		{
			"buffer":0,
			"byteLength":3432,
			"byteOffset":237168,
			"target":34962
		},
		{
			"buffer":0,
			"byteLength":1512,
			"byteOffset":240600,
			"target":34963
		},
		{
			"buffer":0,
			"byteLength":360,
			"byteOffset":242112,
			"target":34962
		},
		{
			"buffer":0,
			"byteLength":360,
			"byteOffset":242472,
			"target":34962
		},
		{
			"buffer":0,
			"byteLength":240,
			"byteOffset":242832,
			"target":34962
		},
		{
			"buffer":0,
			"byteLength":96,
			"byteOffset":243072,
			"target":34963
		},
		{
			"buffer":0,
			"byteLength":3540,
			"byteOffset":243168,
			"target":34962
		},
		{
			"buffer":0,
			"byteLength":3540,
			"byteOffset":246708,
			"target":34962
		},
		{
			"buffer":0,
			"byteLength":2360,
			"byteOffset":250248,
			"target":34962
		},
		{
			"buffer":0,
			"byteLength":1104,
			"byteOffset":252608,
			"target":34963
		},
		{
			"buffer":0,
			"byteLength":3540,
			"byteOffset":253712,
			"target":34962
		},
		{
			"buffer":0,
			"byteLength":3540,
			"byteOffset":257252,
			"target":34962
		},
		{
			"buffer":0,
			"byteLength":2360,
			"byteOffset":260792,
			"target":34962
		},
		{
			"buffer":0,
			"byteLength":360,
			"byteOffset":263152,
			"target":34962
		},
		{
			"buffer":0,
			"byteLength":360,
			"byteOffset":263512,
			"target":34962
		},
		{
			"buffer":0,
			"byteLength":240,
			"byteOffset":263872,
			"target":34962
		}
	],
	"samplers":[
		{
			"magFilter":9729,
			"minFilter":9987
		}
	],
	"buffers":[
		{
			"byteLength":264112,
			"uri":"scene.bin"
		}
	]
}
