{"asset":{"version":"2.0","generator":"THREE.GLTFExporter"},"scenes":[{"name":"AuxScene","nodes":[1]}],"scene":0,"nodes":[{"name":"Cup","extras":{"name":"Cup"},"mesh":0},{"name":"Scene","children":[0]}],"bufferViews":[{"buffer":0,"byteOffset":0,"byteLength":688176,"target":34962,"byteStride":12},{"buffer":0,"byteOffset":688176,"byteLength":688176,"target":34962,"byteStride":12},{"buffer":0,"byteOffset":1376352,"byteLength":1376256,"target":34963}],"buffers":[{"byteLength":2752608,"uri":"data:application/octet-stream;base64,"}],"accessors":[{"bufferView":0,"componentType":5126,"count":57348,"max":[1.0779993534088135,1.7724319696426392,0.5489662289619446],"min":[-0.7019845843315125,0.27331507205963135,-0.7118919491767883],"type":"VEC3"},{"bufferView":1,"componentType":5126,"count":57348,"max":[1,0.9999685287475586,1],"min":[-1,-1,-1],"type":"VEC3"},{"bufferView":2,"componentType":5125,"count":344064,"max":[57347],"min":[0],"type":"SCALAR"}],"materials":[{"pbrMetallicRoughness":{"baseColorFactor":[0.7058823529411765,0.6627450980392157,0.6588235294117647,1],"metallicFactor":0,"roughnessFactor":0.26818180084228516},"alphaMode":"BLEND","name":"Material.002"}],"meshes":[{"primitives":[{"mode":4,"attributes":{"POSITION":0,"NORMAL":1},"indices":2,"material":0}]}]}